<svg xmlns="http://www.w3.org/2000/svg" version="1.1" width="1024" height="1024">

<path d="M0 0 C6.53850345 5.10671437 11.42748752 11.48897069 14.125 19.375 C14.125 20.365 14.125 21.355 14.125 22.375 C15.0103669 22.35834541 15.0103669 22.35834541 15.91362 22.34135437 C22.06164403 22.2306634 28.20938467 22.15529255 34.3581543 22.1003418 C36.65221658 22.07521072 38.9461989 22.04110031 41.23999023 21.99780273 C44.53910049 21.93709168 47.83715146 21.90877563 51.13671875 21.88671875 C52.16085373 21.86091232 53.18498871 21.8351059 54.24015808 21.80851746 C55.20077652 21.8081398 56.16139496 21.80776215 57.15112305 21.80737305 C58.41354073 21.79071846 58.41354073 21.79071846 59.70146179 21.77372742 C63.21452273 22.64530733 64.63226761 24.76421868 67.125 27.375 C68.1309428 28.41730494 69.13691193 29.45958446 70.14290333 30.5018425 C71.28546464 31.69472304 72.42756497 32.88804524 73.56929016 34.08172607 C74.88606937 35.45570153 76.20299167 36.82953985 77.52003479 38.20326233 C78.21966906 38.93313921 78.91930332 39.66301609 79.64013863 40.41501045 C95.34502293 56.79200819 111.15252272 73.06645103 127.03231939 89.27386723 C129.3861592 91.67646147 131.73912571 94.07990921 134.09155273 96.48388672 C134.55972179 96.96228588 135.02789084 97.44068504 135.51024684 97.93358114 C143.05654965 105.64889642 150.53087294 113.43037403 157.98023639 121.23919544 C165.66317999 129.28962992 173.42254255 137.26047415 181.2505061 145.1699574 C185.63106746 149.60093464 189.97202639 154.0583405 194.23208046 158.60555267 C215.63983786 182.24887049 215.63983786 182.24887049 245.07415295 191.10437393 C252.83141709 191.16427789 260.46147106 190.54407094 268.125 189.375 C268.32366165 188.75590256 268.5223233 188.13680511 268.727005 187.49894714 C268.99151962 186.68742691 269.25603424 185.87590668 269.52856445 185.03979492 C269.7891011 184.23507248 270.04963776 183.43035004 270.31806946 182.60124207 C273.57302068 173.62115151 281.89366467 167.6065654 289.9375 163.125 C299.02501851 158.88297476 309.13687422 158.34686725 318.72265625 161.12890625 C332.13918312 166.08493395 339.6281897 173.83150227 345.92578125 186.41015625 C349.91178126 196.26479472 348.88391762 207.34240835 345.5078125 217.19921875 C340.78418547 228.04754863 332.86545398 235.84542875 321.875 240.25 C310.53792184 243.65112345 298.22736048 243.6342469 287.5390625 238.015625 C279.47390693 232.81748486 270.84795506 224.9053427 268.125 215.375 C268.125 214.385 268.125 213.395 268.125 212.375 C266.2571947 212.66196117 266.2571947 212.66196117 264.35165596 212.95471954 C247.33089406 215.32668322 227.01058468 217.96899692 212.09425509 207.80485106 C201.15238192 199.37191777 191.95894614 188.91949041 182.78733206 178.65284157 C178.457351 173.87381507 173.96720872 169.25041444 169.48855591 164.61120605 C161.99826783 156.8169029 154.5841171 148.95820567 147.24121094 141.02490234 C146.77889014 140.52546968 146.31656934 140.02603701 145.84023882 139.51147002 C143.96757969 137.48804811 142.09533465 135.46424406 140.22357743 133.43998781 C135.06174374 127.85811648 129.88790166 122.28748364 124.70507812 116.72509766 C124.24034591 116.22626939 123.7756137 115.72744113 123.29679869 115.21349686 C115.49314535 106.84275577 107.61084025 98.55079531 99.67669022 90.30350351 C95.25206902 85.69360997 90.87900766 81.05141768 86.6033287 76.30271912 C66.99477417 52.95720632 66.99477417 52.95720632 39.58090651 42.96478415 C31.31745398 42.79339469 23.21340153 43.74486493 15.125 45.375 C14.53187012 46.59823975 14.53187012 46.59823975 13.92675781 47.84619141 C13.39920898 48.92046387 12.87166016 49.99473633 12.328125 51.1015625 C11.80895508 52.16455566 11.28978516 53.22754883 10.75488281 54.32275391 C5.6293174 63.92128878 -2.4594927 69.66119201 -12.625 73.25 C-23.54712618 76.13056075 -35.90344229 75.40469279 -45.75390625 69.7109375 C-55.71536293 62.90733035 -62.50039564 54.27976635 -65.625 42.5625 C-66.73901944 28.35875208 -65.21910842 18.20545868 -56.875 6.375 C-42.41521607 -10.41700715 -17.88181499 -12.06778225 0 0 Z M-40.875 21.375 C-44.07890688 26.89897737 -44.76645909 32.04564046 -43.875 38.375 C-41.84332959 44.7430852 -38.47439459 48.31820309 -32.6875 51.625 C-25.89951312 53.43512983 -19.69420305 53.09747554 -13.5625 49.57421875 C-9.12318718 46.41942932 -7.08016564 42.59738443 -5.875 37.375 C-5.28400564 31.61021295 -5.60273348 27.33981816 -8.875 22.375 C-12.71919696 17.7833203 -16.81439515 14.95966303 -22.85546875 14.08984375 C-29.86414413 13.77804581 -35.91622122 16.41622122 -40.875 21.375 Z M293.125 187.375 C288.52959183 193.26654894 287.45688688 198.08649319 288.125 205.375 C290.22831807 212.01705707 293.33109646 215.84626033 299.4375 219.1875 C305.12403708 221.0187577 309.12596292 221.0187577 314.8125 219.1875 C320.39253158 216.13427517 323.96793317 212.39208115 326.125 206.375 C327.06116969 199.58206139 326.19241674 193.97236248 322.125 188.375 C317.72003989 183.75151707 313.75823207 182.2104213 307.4375 182 C301.41949925 182.05821524 297.5556074 183.27535363 293.125 187.375 Z " fill="#000000" transform="translate(370.875,394.625)"/>
<path d="M0 0 C7.60150039 5.75216222 13.11395861 14.53596139 15.12109375 23.89453125 C16.740727 37.60742607 14.38235131 49.39823377 5.75 60.42578125 C-1.57316364 68.28907531 -10.95747608 73.39046723 -21.7265625 74.07421875 C-35.27172785 74.25623665 -45.31930751 71.18258365 -55.6015625 62.0234375 C-60.67104074 56.66804508 -62.28894247 51.99557657 -65.52734375 44.87109375 C-78.72734375 44.87109375 -91.92734375 44.87109375 -105.52734375 44.87109375 C-106.18734375 46.19109375 -106.84734375 47.51109375 -107.52734375 48.87109375 C-109.42619429 50.96026025 -111.33898904 52.96303542 -113.33984375 54.94921875 C-113.90936768 55.52065613 -114.4788916 56.09209351 -115.06567383 56.68084717 C-116.26691055 57.88344164 -117.47066372 59.08352709 -118.67675781 60.28125 C-120.5277533 62.12150092 -122.36779821 63.97222008 -124.20703125 65.82421875 C-125.37566099 66.99152759 -126.54491059 68.15821626 -127.71484375 69.32421875 C-128.26696533 69.88038879 -128.81908691 70.43655884 -129.38793945 71.00958252 C-133.2974074 74.87109375 -133.2974074 74.87109375 -135.52734375 74.87109375 C-136.18734375 76.19109375 -136.84734375 77.51109375 -137.52734375 78.87109375 C-138.18734375 78.87109375 -138.84734375 78.87109375 -139.52734375 78.87109375 C-139.73359375 79.4021875 -139.93984375 79.93328125 -140.15234375 80.48046875 C-142.10695567 83.87882811 -144.74858092 86.38165303 -147.52734375 89.12109375 C-148.07390625 89.67539062 -148.62046875 90.2296875 -149.18359375 90.80078125 C-153.27395705 94.87109375 -153.27395705 94.87109375 -155.52734375 94.87109375 C-155.75421875 95.44859375 -155.98109375 96.02609375 -156.21484375 96.62109375 C-157.85772398 99.43745985 -159.92267602 100.95186489 -162.52734375 102.87109375 C-167.81746499 98.46265938 -172.71542803 93.79549581 -177.52734375 88.87109375 C-175.85226942 84.97794696 -173.28424492 81.87598773 -170.61206055 78.63378906 C-169.85408377 77.71146815 -169.85408377 77.71146815 -169.08079433 76.77051449 C-162.36489734 68.67257456 -155.36284983 60.83866144 -148.21484375 53.12109375 C-147.52842175 52.37838604 -146.84199974 51.63567833 -146.13477707 50.87046432 C-129.16133177 32.6677491 -113.97524566 18.44259431 -88.17701721 17.47134399 C-83.46451357 17.39961087 -78.7900666 17.60625171 -74.08984375 17.93359375 C-73.31855007 17.98725601 -72.54725639 18.04091827 -71.75259018 18.09620667 C-62.24496896 18.81017134 -52.8909193 20.06311524 -43.52734375 21.87109375 C-42.52734375 24.87109375 -42.52734375 24.87109375 -43.52734375 27.87109375 C-44.14061221 33.85046125 -43.77414209 39.67847899 -40.52734375 44.87109375 C-35.31529885 49.83670627 -30.25873454 51.24165217 -23.1640625 51.1484375 C-17.42279905 50.54454164 -13.69613245 48.30960292 -10.08984375 43.87109375 C-7.52546533 38.94748718 -6.81015386 34.43689135 -7.52734375 28.87109375 C-9.41869756 23.00249308 -12.45443654 19.28754146 -17.52734375 15.87109375 C-22.06101776 14.55249811 -26.64942723 14.74345466 -31.328125 14.7734375 C-32.58268745 14.77555992 -32.58268745 14.77555992 -33.8625946 14.77772522 C-36.52171475 14.78330191 -39.18074925 14.7958501 -41.83984375 14.80859375 C-43.64778524 14.81361176 -45.45572805 14.81817414 -47.26367188 14.82226562 C-51.68492859 14.83326371 -56.10612168 14.85051225 -60.52734375 14.87109375 C-61.02234375 13.88109375 -61.02234375 13.88109375 -61.52734375 12.87109375 C-55.41483558 2.68358013 -46.76107946 -4.69509412 -35.08203125 -7.7734375 C-21.71607473 -9.63322656 -11.11424196 -7.51891756 0 0 Z " fill="#000000" transform="translate(703.52734375,395.12890625)"/>
<path d="M0 0 C5.32476257 0.33588484 7.8053276 3.23572269 11.3125 6.875 C11.86228516 7.41769531 12.41207031 7.96039062 12.97851562 8.51953125 C17 12.60595885 17 12.60595885 17 16 C16.34 16 15.68 16 15 16 C15 16.66 15 17.32 15 18 C14.34 18 13.68 18 13 18 C13 18.66 13 19.32 13 20 C12.34 20 11.68 20 11 20 C11 20.66 11 21.32 11 22 C10.34 22 9.68 22 9 22 C8.79375 22.53625 8.5875 23.0725 8.375 23.625 C6.46749574 26.91978009 3.95180616 29.59363628 1 32 C0.34 32 -0.32 32 -1 32 C-1 32.66 -1 33.32 -1 34 C-1.66 34 -2.32 34 -3 34 C-3 34.66 -3 35.32 -3 36 C-3.66 36 -4.32 36 -5 36 C-5 36.66 -5 37.32 -5 38 C-5.66 38 -6.32 38 -7 38 C-7 38.66 -7 39.32 -7 40 C-7.66 40 -8.32 40 -9 40 C-9 40.66 -9 41.32 -9 42 C-9.66 42 -10.32 42 -11 42 C-11 42.66 -11 43.32 -11 44 C-11.66 44 -12.32 44 -13 44 C-13 44.66 -13 45.32 -13 46 C-13.66 46 -14.32 46 -15 46 C-15 46.66 -15 47.32 -15 48 C-15.66 48 -16.32 48 -17 48 C-17 48.66 -17 49.32 -17 50 C-17.66 50 -18.32 50 -19 50 C-19.37125 50.928125 -19.37125 50.928125 -19.75 51.875 C-21.23740369 54.40358627 -22.43678009 54.71839004 -25 56 C-25.41765625 56.87458862 -25.41765625 56.87458862 -25.84375 57.7668457 C-27.31789358 60.61397225 -29.22809062 62.47001777 -31.5 64.73046875 C-32.386875 65.61541016 -33.27375 66.50035156 -34.1875 67.41210938 C-35.115625 68.32798828 -36.04375 69.24386719 -37 70.1875 C-37.928125 71.11498047 -38.85625 72.04246094 -39.8125 72.99804688 C-47.99376156 81.12579727 -47.99376156 81.12579727 -55.40234375 81.1328125 C-56.38886177 81.13479141 -56.38886177 81.13479141 -57.39530945 81.1368103 C-59.57608555 81.13874591 -61.7567366 81.13233407 -63.9375 81.125 C-64.68110779 81.12411377 -65.42471558 81.12322754 -66.19085693 81.12231445 C-83.46967524 81.09831674 -100.73262547 80.59292537 -118 80 C-117.84144531 78.92621094 -117.68289063 77.85242188 -117.51953125 76.74609375 C-116.43451428 68.92255031 -116.45551144 63.61149788 -121 57 C-126.31854733 51.940894 -130.89589496 51.65026227 -137.984375 51.71875 C-143.50954966 52.23405126 -146.55177153 54.47554897 -150.375 58.5 C-153.65487871 63.54596724 -153.51069741 69.14090788 -153 75 C-151.31134503 79.7104586 -148.86922022 82.83427437 -145 86 C-139.61253402 87.94644476 -134.85997817 88.27057322 -129.22265625 88.1953125 C-128.00563271 88.19106766 -128.00563271 88.19106766 -126.76402283 88.18673706 C-124.19669247 88.17562663 -121.62972322 88.15053971 -119.0625 88.125 C-117.31185403 88.11495836 -115.56120254 88.10583459 -113.81054688 88.09765625 C-109.54022746 88.07571734 -105.27017475 88.0412516 -101 88 C-100.67 88.99 -100.34 89.98 -100 91 C-104.35375935 99.23352071 -112.33454244 105.8002109 -121 109 C-131.55917993 112.10071157 -143.53835483 111.98308398 -153.62890625 107.34375 C-164.02201733 101.45374965 -170.89147671 93.23247653 -175 82 C-178.13348333 69.15271836 -175.68830495 57.1412613 -169 46 C-163.56499049 38.35574722 -155.94398465 32.14825341 -146.84375 29.47265625 C-136.43360749 27.74239905 -125.31151819 27.58789015 -116 33 C-115.22398437 33.43570313 -114.44796875 33.87140625 -113.6484375 34.3203125 C-105.08317143 39.56259909 -99.19774845 46.42661646 -96 56 C-96 56.66 -96 57.32 -96 58 C-90.73486959 58.17400017 -85.47143792 58.3005091 -80.20410156 58.38452148 C-78.41539331 58.4195657 -76.62688329 58.46721801 -74.83886719 58.52807617 C-72.25666292 58.61371784 -69.677123 58.65284452 -67.09375 58.68359375 C-66.30383667 58.71972275 -65.51392334 58.75585175 -64.70007324 58.79307556 C-58.99324757 58.79704473 -56.19877199 57.16717587 -52.15460205 53.21876526 C-51.44358337 52.48657272 -50.7325647 51.75438019 -50 51 C-49.16539246 50.18631454 -48.33078491 49.37262909 -47.47088623 48.5342865 C-44.55319004 45.68651736 -41.66867277 42.80801117 -38.7890625 39.921875 C-37.72926139 38.862749 -36.66931199 37.80377135 -35.60922241 36.74493408 C-33.40403409 34.54120976 -31.20063881 32.33571284 -28.99853516 30.12890625 C-26.1774879 27.30212724 -23.35192669 24.47990936 -20.52503395 21.65897751 C-18.3425216 19.48007609 -16.16239321 17.29880194 -13.98298264 15.1167984 C-12.94151542 14.0746652 -11.89930788 13.03327129 -10.85634232 11.99263763 C-9.40391061 10.54274499 -7.95472168 9.08968676 -6.50634766 7.63574219 C-5.68220367 6.81080261 -4.85805969 5.98586304 -4.00894165 5.13592529 C-1.85937838 2.96889747 -1.85937838 2.96889747 0 0 Z " fill="#000000" transform="translate(481,526)"/>
<path d="M0 0 C3.12473436 1.48839338 5.26007652 3.01465536 7.6875 5.5 C8.28949219 6.1084375 8.89148438 6.716875 9.51171875 7.34375 C12.54599711 10.72047972 12.121156 13.48720781 12.11352539 17.92822266 C12.11367142 18.64052536 12.11381744 19.35282806 12.1139679 20.0867157 C12.11327011 22.44586206 12.10548397 24.80492989 12.09765625 27.1640625 C12.0957916 28.79788164 12.09436792 30.43170134 12.09336853 32.06552124 C12.08954709 36.3694818 12.07971998 40.67340871 12.06866455 44.97735596 C12.05844242 49.36771184 12.05386919 53.75807315 12.04882812 58.1484375 C12.03809739 66.76564046 12.02102543 75.38281604 12 84 C12.62204315 84.20119949 13.2440863 84.40239899 13.88497925 84.60969543 C14.69879059 84.87618393 15.51260193 85.14267242 16.35107422 85.41723633 C17.15874237 85.68031082 17.96641052 85.94338531 18.79855347 86.21443176 C26.76868362 89.05850769 33.51526903 96.4863931 37.51171875 103.74609375 C42.25111865 113.75451129 44.02773354 125.1850474 40.73828125 136.015625 C36.39035753 147.7021078 29.6759763 156.09733554 18.25 161.5625 C6.89314192 166.49965628 -4.37306701 165.85645797 -16 162 C-26.56761884 156.59186565 -34.99731735 147.16537793 -39 136 C-41.63280726 125.35830352 -40.98776867 113.31090923 -35.7109375 103.63671875 C-31.68027177 97.224296 -26.628799 90.08058155 -19 88 C-16.89926043 90.10073957 -17.81400539 94.72963309 -17.7890625 97.63671875 C-17.76097931 99.42904536 -17.73231475 101.22136294 -17.703125 103.01367188 C-17.66195094 105.84659433 -17.62507606 108.67935083 -17.59863281 111.51245117 C-17.57093165 114.24173171 -17.52504274 116.97023859 -17.4765625 119.69921875 C-17.47330963 120.54006516 -17.47005676 121.38091156 -17.46670532 122.24723816 C-17.36224269 127.27379596 -16.60501209 130.57048359 -14 135 C-13.67 135.99 -13.34 136.98 -13 138 C-10.70465742 139.13545562 -10.70465742 139.13545562 -8 140 C-6.8553125 140.556875 -6.8553125 140.556875 -5.6875 141.125 C-1.20656774 142.58390818 2.85448873 142.86725412 7.22265625 141.1015625 C8.61053216 140.39125214 9.98360244 139.65084163 11.3359375 138.875 C13 138 13 138 15 138 C18.32725917 131.82080439 19.94754634 125.99999861 19 119 C17.57174753 114.39875484 15.7513949 111.61050836 12 108.5625 C5.09662727 104.96699337 -1.5147705 105.72203399 -9 107 C-11.11767006 104.88232994 -10.23179924 100.16298919 -10.2722168 97.23266602 C-10.29653023 95.85202721 -10.29653023 95.85202721 -10.32133484 94.4434967 C-10.4618968 85.92480471 -10.53973209 77.40505381 -10.60025311 68.88545322 C-10.641179 63.16114693 -10.70141339 57.43855703 -10.80932617 51.71508789 C-10.91328612 46.18295758 -10.96769281 40.65235657 -10.98771095 35.11930656 C-11.00361184 33.0145143 -11.03676948 30.90977594 -11.08786583 28.8055439 C-11.48923915 11.43705011 -11.48923915 11.43705011 -7.70498657 6.42037964 C-5.25915548 3.95378666 -2.89675228 1.90626672 0 0 Z " fill="#000000" transform="translate(511,554)"/>
<path d="M0 0 C8.73885226 6.53626102 14.76302116 15.91130269 16.38671875 26.78515625 C17.21431401 39.81978165 15.28396277 50.1964748 7.38671875 60.78515625 C3.31937315 65.17150935 0.32196446 67.73438391 -5.61328125 68.78515625 C-5.6272998 67.03041992 -5.6272998 67.03041992 -5.64160156 65.24023438 C-5.68168187 60.87136725 -5.74748984 56.50319102 -5.82080078 52.13476562 C-5.84890622 50.24943971 -5.87017231 48.36399826 -5.88427734 46.47851562 C-5.90585214 43.75721525 -5.95257474 41.03728894 -6.00390625 38.31640625 C-6.00513489 37.48274536 -6.00636353 36.64908447 -6.00762939 35.79016113 C-6.14840083 30.07734282 -7.3087659 25.52399049 -10.61328125 20.78515625 C-16.69631472 15.94355818 -22.03363147 14.98788938 -29.61328125 15.78515625 C-34.24577798 17.16622427 -36.99815666 19.02807983 -40.05078125 22.78515625 C-43.01858713 28.48334354 -43.84174835 34.79088324 -41.9296875 41.0078125 C-39.77752216 45.78544096 -37.3279304 48.27736415 -32.61328125 50.78515625 C-26.82358064 52.71505645 -20.50547836 52.11565237 -14.61328125 50.78515625 C-12.50566884 52.89276866 -13.3816887 57.54673954 -13.34106445 60.46069336 C-13.3248555 61.37136566 -13.30864655 62.28203796 -13.29194641 63.2203064 C-13.15137943 71.64905861 -13.07354735 80.07888102 -13.01302814 88.5085516 C-12.97210397 94.17233295 -12.91187409 99.83437933 -12.80395508 105.49731445 C-12.69998634 110.97109224 -12.64558706 116.44332425 -12.6255703 121.91803169 C-12.60967082 124.00049747 -12.57651626 126.08290885 -12.52541542 128.16480827 C-12.12404345 145.34756046 -12.12404345 145.34756046 -15.90829468 150.35134888 C-18.35419904 152.81780003 -20.72120638 154.87163209 -23.61328125 156.78515625 C-26.52435836 155.3773867 -28.85313613 153.90892642 -31.30078125 151.78515625 C-31.90277344 151.26953125 -32.50476563 150.75390625 -33.125 150.22265625 C-35.38548922 148.03929658 -35.60414833 146.95901198 -35.77149963 143.77328491 C-35.79481606 141.83469101 -35.79481606 141.83469101 -35.81860352 139.85693359 C-35.82850311 139.14463089 -35.83840271 138.43232819 -35.84860229 137.69844055 C-35.88023983 135.33935899 -35.90498355 132.98025728 -35.9296875 130.62109375 C-35.95025509 128.98726878 -35.97125151 127.35344917 -35.99266052 125.71963501 C-36.04790138 121.41573409 -36.09730175 117.11178499 -36.14550781 112.80780029 C-36.19570815 108.41739607 -36.25140186 104.02706196 -36.30664062 99.63671875 C-36.41424683 91.0195905 -36.51568631 82.40240367 -36.61328125 73.78515625 C-37.42877441 73.39046143 -38.24426758 72.9957666 -39.08447266 72.58911133 C-40.15874512 72.06212646 -41.23301758 71.5351416 -42.33984375 70.9921875 C-43.40283691 70.47374268 -44.46583008 69.95529785 -45.56103516 69.42114258 C-54.57565546 64.58935801 -61.01999733 56.8370619 -64.48828125 47.22265625 C-67.0529898 37.43707182 -67.12914791 24.96842872 -62.61328125 15.78515625 C-55.95046331 4.55533634 -47.22086038 -2.79304403 -34.796875 -6.80078125 C-22.36711165 -9.15776679 -10.56529897 -6.75051284 0 0 Z " fill="#000000" transform="translate(536.61328125,312.21484375)"/>
<path d="M0 0 C3.81667786 1.79131454 6.55939529 4.09338878 9.6875 6.9375 C10.66074219 7.81277344 11.63398438 8.68804687 12.63671875 9.58984375 C15 12 15 12 16 15 C15.34 15.99 14.68 16.98 14 18 C13.34 18 12.68 18 12 18 C12 18.66 12 19.32 12 20 C11.34 20 10.68 20 10 20 C8.94949548 22.14054182 8.94949548 22.14054182 9 25 C10.44363362 26.93637085 12.01400274 28.5760339 13.75 30.25390625 C15 32 15 32 14.73950195 33.91845703 C13.4965005 37.41724555 10.76802981 39.74415687 8.1875 42.3125 C7.65318359 42.87517578 7.11886719 43.43785156 6.56835938 44.01757812 C4.98046875 45.61328125 4.98046875 45.61328125 2 48 C-2.24781419 47.55936588 -3.82862827 45.25076386 -6.5 42.0625 C-10.89893112 36.76708552 -10.89893112 36.76708552 -17.24019432 34.75949097 C-18.06201509 34.76393219 -18.88383587 34.76837341 -19.7305603 34.77294922 C-20.67818741 34.77309021 -21.62581451 34.7732312 -22.60215759 34.77337646 C-24.15139671 34.78887543 -24.15139671 34.78887543 -25.73193359 34.8046875 C-26.82503342 34.80760803 -27.91813324 34.81052856 -29.0443573 34.8135376 C-31.41847919 34.8211498 -33.79258971 34.83338319 -36.16666794 34.84967041 C-39.92401142 34.87517358 -43.68121386 34.88822292 -47.43862915 34.89794922 C-56.0951398 34.92276888 -64.75152516 34.96609503 -73.40795135 35.01040649 C-81.96859202 35.05401874 -90.52919407 35.08973957 -99.08992386 35.11187744 C-102.79143459 35.1248441 -106.4927403 35.14986239 -110.19418335 35.17529297 C-112.46587953 35.18255906 -114.7375776 35.18926239 -117.00927734 35.1953125 C-118.55244377 35.21081146 -118.55244377 35.21081146 -120.12678528 35.22662354 C-126.19690468 35.22752133 -131.23922672 35.01461834 -136.3125 31.3125 C-138.62582909 28.14238236 -138.93263528 25.90715374 -139 22 C-137.84116555 18.65225602 -136.76573668 16.66390424 -134.08912659 14.34324646 C-129.34782913 12.28158571 -124.81067477 12.66166905 -119.69897461 12.75805664 C-117.98578033 12.77168243 -117.98578033 12.77168243 -116.23797607 12.7855835 C-113.75853431 12.80592357 -111.27913731 12.83244188 -108.79981804 12.86439705 C-104.86838761 12.91055492 -100.93767322 12.93058083 -97.0059967 12.94200134 C-95.65656556 12.94595173 -94.30713452 12.94993935 -92.95770359 12.95396328 C-91.94410871 12.95697124 -91.94410871 12.95697124 -90.91003716 12.96003997 C-81.76379827 12.9899771 -72.618414 13.04744456 -63.47290039 13.16772461 C-56.63265609 13.25739529 -49.79430168 13.28333959 -42.95349312 13.27389336 C-40.35358897 13.28135167 -37.75364899 13.31051264 -35.15424919 13.36226082 C-19.41495742 14.27063698 -19.41495742 14.27063698 -5.87996006 7.61715603 C-3.6511937 5.20614587 -1.78852827 2.75497 0 0 Z " fill="#B4B5B6" transform="translate(444,488)"/>
<path d="M0 0 C3.50662969 1.3539952 4.52431083 3.45576194 6.71012878 6.48831177 C10.35037719 10.61912274 13.639635 12.31872629 19.12043762 12.97946167 C26.23692973 13.4280491 33.34879843 13.25656076 40.47306824 13.11282349 C43.11096549 13.10203813 45.748891 13.0968461 48.3868103 13.09698486 C54.60265436 13.09003142 60.8167447 13.03160202 67.03202409 12.95051873 C78.83031922 12.79744243 90.62876048 12.73050065 102.42793846 12.69739151 C106.29846681 12.67560271 110.16738032 12.6191719 114.03747559 12.55883789 C116.40768188 12.54173878 118.77789585 12.52566171 121.14811707 12.51077271 C122.75894417 12.471912 122.75894417 12.471912 124.40231323 12.43226624 C132.54033505 12.42727611 132.54033505 12.42727611 136.23605347 15.39923096 C139.05215231 18.52059046 139.53321799 19.96636874 139.75431824 23.99954224 C139.4741179 27.18137275 138.33103332 29.36689148 136.57853699 31.99563599 C131.68751321 35.2563185 127.28313488 35.11124401 121.50431824 35.05813599 C119.98950943 35.04831947 118.47469799 35.03890426 116.95988464 35.02981567 C116.14030273 35.02349121 115.32072083 35.01716675 114.4763031 35.01065063 C111.8284451 34.99527247 109.18102175 34.99543068 106.53312683 35.0005188 C96.86844319 35.01832992 87.20598565 35.01148961 77.54191589 34.89602661 C70.10733839 34.80732228 62.67375112 34.76542075 55.23863697 34.76503754 C51.06452921 34.76282311 46.89303424 34.7386808 42.71955872 34.66311646 C38.72075943 34.59131193 34.72561943 34.5778487 30.72630882 34.60492706 C29.2416023 34.60498208 27.75672369 34.58462224 26.27263832 34.54167938 C19.81393793 34.3652151 14.08132729 34.42081644 8.92710876 38.76040649 C5.88840354 41.64011971 3.19647533 44.73228823 0.57853699 47.99563599 C-2.45846822 46.545167 -4.52048584 45.11882468 -6.85896301 42.68313599 C-7.45708801 42.06696411 -8.05521301 41.45079224 -8.67146301 40.81594849 C-9.24896301 40.21524536 -9.82646301 39.61454224 -10.42146301 38.99563599 C-11.39818483 38.01403056 -12.37701068 37.03450904 -13.35896301 36.05813599 C-14.03958801 35.37751099 -14.72021301 34.69688599 -15.42146301 33.99563599 C-11.27860587 27.56706456 -11.27860587 27.56706456 -8.42146301 24.99563599 C-9.90745462 20.40257103 -12.27160983 17.55994353 -15.42146301 13.99563599 C-13.11382264 11.30566466 -10.77370503 8.64665067 -8.42146301 5.99563599 C-7.88521301 5.36786255 -7.34896301 4.74008911 -6.79646301 4.09329224 C-3.09301654 -0.0055743 -3.09301654 -0.0055743 0 0 Z " fill="#B5B6B7" transform="translate(579.4214630126953,488.0043640136719)"/>
<path d="M0 0 C3.31666535 0.58884306 5.01693591 1.61652566 7.44140625 3.9296875 C8.09874756 4.55141846 8.75608887 5.17314941 9.43334961 5.8137207 C10.13596924 6.49394287 10.83858887 7.17416504 11.5625 7.875 C12.2954126 8.57520264 13.0283252 9.27540527 13.78344727 9.99682617 C19.72934149 15.70601181 25.59462485 21.49812123 31.4375 27.3125 C32.26000244 28.13024902 33.08250488 28.94799805 33.92993164 29.79052734 C34.69426514 30.55703613 35.45859863 31.32354492 36.24609375 32.11328125 C36.92341553 32.79173096 37.6007373 33.47018066 38.29858398 34.16918945 C41.94446201 38.09234046 42.43734266 40.63637608 42.3203125 45.77734375 C41.83966478 49.11256999 40.44663129 50.75725465 38 53 C34.70817926 55.30427452 31.94707969 55.68314841 28 55 C26.30175781 53.71923828 26.30175781 53.71923828 24.453125 52.0078125 C21.34169397 49.17400916 18.14934202 46.52999209 14.84375 43.92578125 C-0.22157655 31.28196407 -0.22157655 31.28196407 -1.296875 20.46484375 C-1.45991425 13.59074474 -0.95871952 6.80543367 0 0 Z " fill="#B7B7B8" transform="translate(534,579)"/>
<path d="M0 0 C3 2.4375 3 2.4375 5 5 C5.495 5.495 5.495 5.495 6 6 C6.2734375 8.109375 6.2734375 8.109375 6.375 10.75 C6.42398438 11.61109375 6.47296875 12.4721875 6.5234375 13.359375 C5.80679942 16.97465369 3.57367877 18.54721801 1 21 C-0.23245812 22.22668224 -1.46178692 23.45651301 -2.6887207 24.6887207 C-12.79248047 34.79248047 -22.89624023 44.89624023 -33 55 C-33.99 54.67 -34.98 54.34 -36 54 C-36.11656783 49.79190116 -36.18737611 45.58422004 -36.25 41.375 C-36.28351562 40.18519531 -36.31703125 38.99539063 -36.3515625 37.76953125 C-36.47644551 26.59250151 -36.47644551 26.59250151 -32 22 C-31.34 22 -30.68 22 -30 22 C-30 21.34 -30 20.68 -30 20 C-29.34 20 -28.68 20 -28 20 C-28 19.34 -28 18.68 -28 18 C-27.34 18 -26.68 18 -26 18 C-26 17.34 -26 16.68 -26 16 C-25.34 16 -24.68 16 -24 16 C-24 15.34 -24 14.68 -24 14 C-23.34 14 -22.68 14 -22 14 C-22 13.34 -22 12.68 -22 12 C-21.34 12 -20.68 12 -20 12 C-20 11.34 -20 10.68 -20 10 C-19.34 10 -18.68 10 -18 10 C-18 9.34 -18 8.68 -18 8 C-17.34 8 -16.68 8 -16 8 C-15.6596875 7.13375 -15.6596875 7.13375 -15.3125 6.25 C-11.74103938 0.12749608 -6.72552124 -1.46206983 0 0 Z " fill="#B5B6B7" transform="translate(570,390)"/>
<path d="M0 0 C0.20455552 4.49932223 0.32806276 8.99743915 0.4375 13.5 C0.49615234 14.7684375 0.55480469 16.036875 0.61523438 17.34375 C0.8086221 27.95244827 0.8086221 27.95244827 -2.984375 32.3515625 C-4.29970661 33.5927745 -5.63973712 34.8081991 -7 36 C-8.4284039 37.46898826 -9.84874617 38.94585034 -11.26171875 40.4296875 C-12.73434621 41.91407507 -14.20962969 43.39583218 -15.6875 44.875 C-16.43322266 45.63296875 -17.17894531 46.3909375 -17.94726562 47.171875 C-18.66978516 47.89632812 -19.39230469 48.62078125 -20.13671875 49.3671875 C-20.78342529 50.01800293 -21.43013184 50.66881836 -22.09643555 51.33935547 C-25.50895506 54.3163925 -27.33887821 55.010494 -31.9375 54.9375 C-35.11450379 54.42182961 -36.20117299 53.8544706 -38.9375 51.875 C-41.44741437 48.37633149 -42 46.29748201 -42 42 C-39.7762002 36.0193957 -35.5756016 32.17353585 -31.12109375 27.79296875 C-30.35322037 27.02696854 -29.58534698 26.26096832 -28.79420471 25.47175598 C-27.17628457 23.86053807 -25.55478057 22.25291189 -23.92993164 20.64868164 C-21.43565997 18.18568304 -18.95232747 15.71206312 -16.47070312 13.23632812 C-14.89645687 11.67124756 -13.3216079 10.10677296 -11.74609375 8.54296875 C-11.00024521 7.80137009 -10.25439667 7.05977142 -9.48594666 6.29570007 C-8.79505447 5.61441544 -8.10416229 4.9331308 -7.39233398 4.23120117 C-6.47991188 3.32902107 -6.47991188 3.32902107 -5.54905701 2.40861511 C-3.64886441 0.68069936 -2.59204718 0 0 0 Z " fill="#B7B7B8" transform="translate(489,579)"/>
<path d="M0 0 C2.4375 1 2.4375 1 4 2 C4 2.66 4 3.32 4 4 C4.598125 4.26039063 5.19625 4.52078125 5.8125 4.7890625 C8.91122738 6.50442945 10.59097482 8.86394228 12.78515625 11.60546875 C14.9846108 14.15461555 14.9846108 14.15461555 18.12109375 16.17578125 C23.17634565 19.850297 26.51894984 22.97606888 27.53759766 29.37939453 C28.05412637 37.93854716 27.65817669 46.45720413 27 55 C24.12791208 53.69856581 22.08118291 52.32474235 19.87133789 50.08251953 C19.28715591 49.4949588 18.70297394 48.90739807 18.10108948 48.30203247 C17.48120651 47.66868988 16.86132355 47.03534729 16.22265625 46.3828125 C15.57429306 45.72924774 14.92592987 45.07568298 14.25791931 44.40231323 C12.18796808 42.31457273 10.12482016 40.22027686 8.0625 38.125 C6.00291859 36.03771986 3.94187143 33.95194296 1.87779236 31.86911011 C0.59499512 30.57414653 -0.68511999 29.27651882 -1.96214294 27.9758606 C-4.49852635 25.41127365 -6.98436921 23.01248886 -9.80688477 20.75732422 C-12.40180553 18.67803671 -13.8340053 17.03091442 -14.37109375 13.6953125 C-14.55153462 6.71118938 -14.55153462 6.71118938 -11.625 2.9375 C-7.49104973 -0.11374901 -5.15746944 -0.26676566 0 0 Z " fill="#B6B7B8" transform="translate(462,390)"/>
<path d="M0 0 C15.4811157 -0.04667715 30.96222616 -0.08196778 46.44339561 -0.10362434 C53.63123295 -0.11394619 60.81902662 -0.1280238 68.00683594 -0.15087891 C74.27019136 -0.17078507 80.53351517 -0.18370983 86.79690135 -0.18817699 C90.11472109 -0.1907891 93.43242902 -0.19798831 96.75022507 -0.21146011 C100.44991259 -0.22589069 104.14941014 -0.22798148 107.84912109 -0.22705078 C108.95466843 -0.23424133 110.06021576 -0.24143188 111.19926453 -0.24884033 C112.70531502 -0.24471634 112.70531502 -0.24471634 114.24179077 -0.24050903 C115.11749411 -0.24235262 115.99319744 -0.24419621 116.89543724 -0.24609566 C119 0 119 0 121 2 C108.72954592 3.29551094 96.4446628 3.18226116 84.12109375 3.203125 C82.99062181 3.20595238 81.86014988 3.20877975 80.69542122 3.21169281 C74.73208514 3.22658874 68.76877273 3.23588312 62.80541992 3.24023438 C56.64842335 3.2457557 50.49164384 3.26988727 44.33471584 3.29820633 C39.58988288 3.31679168 34.84510319 3.32203576 30.10023689 3.32357025 C27.82879491 3.32659833 25.55735389 3.33463203 23.2859478 3.34775543 C20.12201845 3.36475593 16.95863385 3.36295218 13.79467773 3.35644531 C12.38816956 3.37026749 12.38816956 3.37026749 10.95324707 3.3843689 C9.66057167 3.37601517 9.66057167 3.37601517 8.34178162 3.36749268 C7.59542167 3.36895924 6.84906172 3.3704258 6.0800848 3.3719368 C3.43806812 2.89952182 2.01671161 1.72317505 0 0 Z " fill="#A1A3A4" transform="translate(590,501)"/>
<path d="M0 0 C0.20455552 4.49932223 0.32806276 8.99743915 0.4375 13.5 C0.49615234 14.7684375 0.55480469 16.036875 0.61523438 17.34375 C0.8086221 27.95244827 0.8086221 27.95244827 -2.984375 32.3515625 C-4.29970661 33.5927745 -5.63973712 34.8081991 -7 36 C-8.4284039 37.46898826 -9.84874617 38.94585034 -11.26171875 40.4296875 C-12.73434621 41.91407507 -14.20962969 43.39583218 -15.6875 44.875 C-16.43322266 45.63296875 -17.17894531 46.3909375 -17.94726562 47.171875 C-18.66978516 47.89632812 -19.39230469 48.62078125 -20.13671875 49.3671875 C-20.78342529 50.01800293 -21.43013184 50.66881836 -22.09643555 51.33935547 C-25.50895506 54.3163925 -27.33887821 55.010494 -31.9375 54.9375 C-36.26930203 54.24247206 -38.37531261 52.57911917 -41 49 C-42.47841428 44.74955895 -41.98616468 42.02761675 -40.15335083 37.96282959 C-37.81029728 33.97530496 -34.40889209 30.90572286 -31.12109375 27.6953125 C-30.35322037 26.93072723 -29.58534698 26.16614197 -28.79420471 25.37838745 C-27.17742059 23.7719886 -25.55589377 22.17035062 -23.92993164 20.57324219 C-21.43358853 18.12115788 -18.95101264 15.6557918 -16.47070312 13.1875 C-14.89660827 11.62682218 -13.32176443 10.06689935 -11.74609375 8.5078125 C-11.00024521 7.76935089 -10.25439667 7.03088928 -9.48594666 6.27005005 C-8.44960838 5.25296463 -8.44960838 5.25296463 -7.39233398 4.21533203 C-6.47991188 3.31767624 -6.47991188 3.31767624 -5.54905701 2.40188599 C-3.64753144 0.68101836 -2.58843914 0 0 0 Z M-6.29467773 6.14941406 C-6.98887314 6.83722961 -7.68306854 7.52504517 -8.39830017 8.23370361 C-9.15244705 8.98673767 -9.90659393 9.73977173 -10.68359375 10.515625 C-11.83964867 11.66668732 -11.83964867 11.66668732 -13.01905823 12.84100342 C-14.65376401 14.47063276 -16.28710001 16.1016371 -17.91918945 17.73388672 C-20.41792254 20.23043962 -22.92451968 22.71890552 -25.43164062 25.20703125 C-27.01611556 26.78857118 -28.60011556 28.3705871 -30.18359375 29.953125 C-31.31177773 31.0705307 -31.31177773 31.0705307 -32.4627533 32.21051025 C-33.16010086 32.91093445 -33.85744843 33.61135864 -34.57592773 34.33300781 C-35.19024155 34.94589661 -35.80455536 35.5587854 -36.43748474 36.19024658 C-38.06988901 38.0809476 -39.123519 39.66078357 -40 42 C-39.36428817 45.62355744 -38.74948986 48.1394746 -36.3125 50.9375 C-32.68365516 52.60480709 -30.99671456 52.77355766 -27 52 C-23.84891171 49.8171552 -21.26280961 47.20791603 -18.57910156 44.48388672 C-16.81715937 42.82818409 -14.94978365 41.40190697 -13.0234375 39.94140625 C-5.27137596 33.72937587 -5.27137596 33.72937587 -1.33349609 24.87548828 C-0.70815096 17.55106774 -1.15626553 10.29073123 -2 3 C-3.86045232 3 -5.04867829 4.91115603 -6.29467773 6.14941406 Z " fill="#A9ABAB" transform="translate(489,579)"/>
<path d="M0 0 C3.32759923 1.55194754 5.48580485 3.30621949 8 6 C7.67 6.66 7.34 7.32 7 8 C5.35 6.68 3.7 5.36 2 4 C-1.65137828 5.49188122 -3.47642064 7.58237254 -6.00340271 10.56114197 C-10.43568084 15.06427954 -13.43813295 16.04369923 -19.67167664 16.11978149 C-20.75205704 16.08742401 -21.83243744 16.05506653 -22.94555664 16.02172852 C-24.10754578 16.02304276 -25.26953491 16.02435699 -26.46673584 16.02571106 C-30.28278319 16.01947293 -34.0948057 15.94962576 -37.91015625 15.87890625 C-40.5653706 15.86210811 -43.22036611 15.84886001 -45.87559509 15.84031677 C-52.13398233 15.81243894 -58.39094004 15.73871929 -64.64870018 15.64817137 C-71.77795371 15.54727173 -78.90727866 15.49801558 -86.03706944 15.45291245 C-100.69211415 15.35905692 -115.34603706 15.20094493 -130 15 C-130 14.34 -130 13.68 -130 13 C-129.4029211 13.00590778 -128.80584221 13.01181557 -128.19067001 13.01790237 C-113.61571493 13.15794894 -99.0414696 13.23091637 -84.46587753 13.23059464 C-77.4167572 13.23203155 -70.36904667 13.25559205 -63.3203125 13.33251953 C-56.51159224 13.40676387 -49.70506509 13.4176529 -42.89600372 13.39070892 C-40.30454325 13.39065332 -37.71299177 13.4114713 -35.12187958 13.4539566 C-19.39585309 14.29019673 -19.39585309 14.29019673 -5.88266373 7.6099205 C-3.65487541 5.20091009 -1.79030243 2.75125777 0 0 Z " fill="#9E9FA1" transform="translate(444,488)"/>
<path d="M0 0 C3.0625 1.9375 3.0625 1.9375 5 5 C5.38759905 8.04979253 5.29945463 10.94556273 5 14 C4.67 14 4.34 14 4 14 C3.34 10.7 2.68 7.4 2 4 C-3.445 3.505 -3.445 3.505 -9 3 C-9.66 4.32 -10.32 5.64 -11 7 C-12.52272855 8.45793904 -14.10386666 9.85578427 -15.71875 11.2109375 C-28.5312499 22.05158986 -28.5312499 22.05158986 -34.1875 37.33642578 C-34.36590925 41.58409919 -34.37598272 45.76360092 -34 50 C-29.73984179 47.72636365 -26.60433592 44.78348346 -23.3125 41.3125 C-21.57842567 39.48631016 -19.82935827 37.73509182 -18 36 C-17.34 36 -16.68 36 -16 36 C-17.39347376 39.15204981 -19.02485079 41.26171773 -21.4765625 43.671875 C-22.146875 44.33574219 -22.8171875 44.99960937 -23.5078125 45.68359375 C-24.55582031 46.70646484 -24.55582031 46.70646484 -25.625 47.75 C-26.33140625 48.44738281 -27.0378125 49.14476562 -27.765625 49.86328125 C-29.50598703 51.58012488 -31.25084981 53.29211832 -33 55 C-33.99 54.67 -34.98 54.34 -36 54 C-36.11656783 49.79190116 -36.18737611 45.58422004 -36.25 41.375 C-36.28351562 40.18519531 -36.31703125 38.99539063 -36.3515625 37.76953125 C-36.47644551 26.59250151 -36.47644551 26.59250151 -32 22 C-31.34 22 -30.68 22 -30 22 C-30 21.34 -30 20.68 -30 20 C-29.34 20 -28.68 20 -28 20 C-28 19.34 -28 18.68 -28 18 C-27.34 18 -26.68 18 -26 18 C-26 17.34 -26 16.68 -26 16 C-25.34 16 -24.68 16 -24 16 C-24 15.34 -24 14.68 -24 14 C-23.34 14 -22.68 14 -22 14 C-22 13.34 -22 12.68 -22 12 C-21.34 12 -20.68 12 -20 12 C-20 11.34 -20 10.68 -20 10 C-19.34 10 -18.68 10 -18 10 C-18 9.34 -18 8.68 -18 8 C-17.34 8 -16.68 8 -16 8 C-15.6596875 7.13375 -15.6596875 7.13375 -15.3125 6.25 C-11.70393334 0.06388572 -6.76138903 -1.36939525 0 0 Z " fill="#AFB0B1" transform="translate(570,390)"/>
<path d="M0 0 C0.78186676 0.00359528 1.56373352 0.00719055 2.36929321 0.01089478 C3.18873917 0.01074875 4.00818512 0.01060272 4.85246277 0.01045227 C7.57416385 0.01115164 10.29579737 0.01894515 13.01748657 0.02676392 C14.89935773 0.02862801 16.78122938 0.03005195 18.6631012 0.03105164 C23.62631561 0.0348775 28.58950096 0.04470836 33.55270386 0.05575562 C38.61322639 0.06596827 43.67375359 0.07054894 48.73428345 0.07559204 C58.67114521 0.08633057 68.60798535 0.10340781 78.54483032 0.12442017 C79.03983032 1.60942017 79.03983032 1.60942017 79.54483032 3.12442017 C68.77480484 3.17071667 58.00480294 3.2062757 47.2346983 3.22804451 C42.23395465 3.2384913 37.23327898 3.25266684 32.23257446 3.27529907 C27.4085657 3.29699552 22.5846224 3.30898204 17.76056862 3.31417465 C15.91812929 3.31787616 14.07569362 3.32510409 12.23328209 3.33588028 C9.65695771 3.35035271 7.08090547 3.3523999 4.50454712 3.35147095 C3.73922165 3.3586615 2.97389618 3.36585205 2.18537903 3.3732605 C-1.57925848 3.35852706 -3.24075475 3.26736345 -6.45516968 1.12442017 C-4.68934605 -0.64140346 -2.35144969 0.00456456 0 0 Z " fill="#BFC0C0" transform="translate(319.4551696777344,519.8755798339844)"/>
<path d="M0 0 C4.0845333 1.77818045 6.04292848 4.17918417 8.78515625 7.60546875 C10.9846108 10.15461555 10.9846108 10.15461555 14.12109375 12.17578125 C19.17634565 15.850297 22.51894984 18.97606888 23.53759766 25.37939453 C24.05412637 33.93854716 23.65817669 42.45720413 23 51 C20.09456128 49.68623083 18.03338941 48.27943508 15.79199219 46.01904297 C15.19167175 45.41857147 14.59135132 44.81809998 13.97283936 44.19943237 C13.33727112 43.55354156 12.70170288 42.90765076 12.046875 42.2421875 C11.38665344 41.57913605 10.72643188 40.91608459 10.04620361 40.23294067 C7.94272176 38.11828168 5.84630858 35.99676788 3.75 33.875 C2.32337739 32.43834443 0.89629928 31.00214102 -0.53125 29.56640625 C-4.02613661 26.04949196 -7.51470062 22.52641453 -11 19 C-10.01 18.67 -9.02 18.34 -8 18 C-7.67 18.99 -7.34 19.98 -7 21 C-5.67592331 21.68486725 -4.34090759 22.34870203 -3 23 C-0.75 25 -0.75 25 1 27 C1 27.66 1 28.32 1 29 C1.556875 29.226875 2.11375 29.45375 2.6875 29.6875 C5.66159588 31.37550036 7.72008865 33.46676517 10 36 C10 36.66 10 37.32 10 38 C11.485 38.495 11.485 38.495 13 39 C13 39.66 13 40.32 13 41 C13.5775 41.2475 14.155 41.495 14.75 41.75 C17.30109062 43.16727257 18.97973107 44.91182287 21 47 C21.0356546 43.33163773 20.99321116 39.66802278 20.9375 36 C20.94845703 34.97003906 20.95941406 33.94007813 20.97070312 32.87890625 C20.82166416 26.19344405 19.78515439 22.55906318 14.99389648 17.83203125 C14.33591064 17.22746094 13.6779248 16.62289063 13 16 C11.7480316 14.72194555 10.49929562 13.44071618 9.25390625 12.15625 C8.02603884 10.93487924 6.79557549 9.71611255 5.5625 8.5 C4.92634766 7.86835938 4.29019531 7.23671875 3.63476562 6.5859375 C2.09217194 5.05494226 0.54642686 3.52712333 -1 2 C-0.67 1.34 -0.34 0.68 0 0 Z " fill="#A09FA1" transform="translate(466,394)"/>
<path d="M0 0 C3.59322025 0.75561401 4.93685585 1.67106981 7.25 4.5625 C8.03117188 5.52349609 8.03117188 5.52349609 8.828125 6.50390625 C9.21484375 6.99761719 9.6015625 7.49132812 10 8 C7.04590299 6.62845496 4.55991624 5.01136276 2 3 C2.11071695 6.20899141 2.24114313 9.41689709 2.375 12.625 C2.4059375 13.52863281 2.436875 14.43226563 2.46875 15.36328125 C2.50742187 16.24628906 2.54609375 17.12929688 2.5859375 18.0390625 C2.6173584 18.84553223 2.6487793 19.65200195 2.68115234 20.48291016 C3.7289231 28.7543623 8.47461939 33.21948665 14.11083984 38.85205078 C15.62158804 40.37156824 17.09743941 41.92019504 18.57421875 43.47265625 C24.07315995 49.50494042 24.07315995 49.50494042 31.5546875 51.7265625 C34.41827229 51.12267727 36.57615603 50.61589598 39 49 C39 49.99 39 50.98 39 52 C36.45152479 54.02378914 34.36120551 54.91973211 31.1875 55.625 C27.72761454 54.94659109 26.96520919 54.32019088 24.45703125 52.00390625 C21.34357722 49.17303881 18.14867772 46.5300165 14.84375 43.92578125 C-0.22157655 31.28196407 -0.22157655 31.28196407 -1.296875 20.46484375 C-1.45991425 13.59074474 -0.95871952 6.80543367 0 0 Z " fill="#A9AAAB" transform="translate(534,579)"/>
<path d="M0 0 C0.33 0.66 0.66 1.32 1 2 C37.63 2 74.26 2 112 2 C112 2.33 112 2.66 112 3 C111.42223722 3.00331015 110.84447443 3.00662029 110.24920368 3.01003075 C96.18570017 3.09127976 82.12230263 3.18337843 68.05894947 3.28752708 C61.2579911 3.33763162 54.45704466 3.38407473 47.65600586 3.421875 C41.09424368 3.45835567 34.53260605 3.50507068 27.97095299 3.55806351 C25.46592173 3.5766147 22.96086254 3.59171996 20.45578957 3.60334396 C16.95061488 3.62019368 13.44573907 3.64922643 9.94067383 3.68115234 C8.38268822 3.68439262 8.38268822 3.68439262 6.79322815 3.68769836 C5.83555542 3.69886185 4.87788269 3.71002533 3.89118958 3.7215271 C3.06249768 3.72705786 2.23380579 3.73258862 1.38000202 3.73828697 C-1.3480652 4.03827442 -3.50481715 4.88267121 -6 6 C-4.95125002 3.37812506 -4.35068687 2.20628639 -1.875 0.75 C-1.25625 0.5025 -0.6375 0.255 0 0 Z " fill="#A9ABAB" transform="translate(313,501)"/>
<path d="M0 0 C-1.44253019 3.29892367 -3.23874661 5.49591661 -5.7734375 8.0390625 C-6.5159375 8.78414062 -7.2584375 9.52921875 -8.0234375 10.296875 C-9.18746094 11.44929687 -9.18746094 11.44929687 -10.375 12.625 C-11.14328125 13.40101563 -11.9115625 14.17703125 -12.703125 14.9765625 C-13.44820313 15.7190625 -14.19328125 16.4615625 -14.9609375 17.2265625 C-15.63946777 17.90283691 -16.31799805 18.57911133 -17.01708984 19.27587891 C-20.4764781 22.28378334 -22.28190319 23.01139836 -26.9375 22.9375 C-31.26930203 22.24247206 -33.37531261 20.57911917 -36 17 C-36.8125 13.6875 -36.8125 13.6875 -37 11 C-36.01 10.67 -35.02 10.34 -34 10 C-33.731875 11.11375 -33.46375 12.2275 -33.1875 13.375 C-32.34190981 17.21840951 -32.34190981 17.21840951 -29 19 C-25.8028229 19.92339574 -25.8028229 19.92339574 -22 19 C-18.30604116 16.36588506 -15.18354067 13.22127152 -12 10 C-11.07832031 9.06800781 -10.15664063 8.13601563 -9.20703125 7.17578125 C-7.47020806 5.41890815 -5.74392435 3.6515163 -4.03125 1.87109375 C-2 0 -2 0 0 0 Z " fill="#A7A8A9" transform="translate(484,611)"/>
<path d="M0 0 C0.33 0 0.66 0 1 0 C0.67 7.59 0.34 15.18 0 23 C4.29848377 20.42090974 7.30913872 17.87471767 10.6875 14.3125 C12.42157433 12.48631016 14.17064173 10.73509182 16 9 C16.66 9 17.32 9 18 9 C16.60652624 12.15204981 14.97514921 14.26171773 12.5234375 16.671875 C11.853125 17.33574219 11.1828125 17.99960937 10.4921875 18.68359375 C9.79351563 19.36550781 9.09484375 20.04742187 8.375 20.75 C7.66859375 21.44738281 6.9621875 22.14476562 6.234375 22.86328125 C4.49401297 24.58012488 2.74915019 26.29211832 1 28 C0.01 27.67 -0.98 27.34 -2 27 C-2 18.75 -2 10.5 -2 2 C-1.34 2 -0.68 2 0 2 C0 1.34 0 0.68 0 0 Z " fill="#989798" transform="translate(536,417)"/>
<path d="M0 0 C3.09998746 0.33214151 4.0545012 1.0545012 6.3125 3.3125 C8 6 8 6 7.7668457 7.97729492 C6.46078957 11.42227266 3.75225399 13.75985819 1.1875 16.3125 C0.65318359 16.87517578 0.11886719 17.43785156 -0.43164062 18.01757812 C-2.01953125 19.61328125 -2.01953125 19.61328125 -5 22 C-9.25120307 21.55759011 -10.9567348 19.20852206 -13.6875 16.0625 C-14.47511719 15.16660156 -15.26273437 14.27070312 -16.07421875 13.34765625 C-18 11 -18 11 -19 9 C-15.14896699 9.53675903 -13.68202413 11.11600923 -11.25 14.0625 C-10.63640625 14.79597656 -10.0228125 15.52945313 -9.390625 16.28515625 C-8.93171875 16.85105469 -8.4728125 17.41695312 -8 18 C-4.25747808 17.42682097 -2.41726945 15.87775435 0.25 13.25 C1.30960937 12.23679687 1.30960937 12.23679687 2.390625 11.203125 C4.30898483 8.57702076 4.33352331 7.1795889 4 4 C2.68 3.34 1.36 2.68 0 2 C0 1.34 0 0.68 0 0 Z " fill="#A4A5A6" transform="translate(451,514)"/>
<path d="M0 0 C0.14532035 4.56216465 0.23408477 9.12373362 0.3125 13.6875 C0.3753418 15.62786133 0.3753418 15.62786133 0.43945312 17.60742188 C0.45556641 18.85458984 0.47167969 20.10175781 0.48828125 21.38671875 C0.51446533 22.53358154 0.54064941 23.68044434 0.56762695 24.86206055 C-0.1656188 28.91556923 -1.91052041 30.3894432 -5 33 C-5 30 -5 30 -3 28 C-2.72191783 25.47622345 -2.72191783 25.47622345 -2.8046875 22.5546875 C-2.81113281 21.47832031 -2.81757813 20.40195312 -2.82421875 19.29296875 C-2.84097656 18.16503906 -2.85773438 17.03710938 -2.875 15.875 C-2.88402344 14.73933594 -2.89304687 13.60367188 -2.90234375 12.43359375 C-2.92596902 9.62218701 -2.95890987 6.81119702 -3 4 C-4.32 5.32 -5.64 6.64 -7 8 C-7.99 7.67 -8.98 7.34 -10 7 C-8.71372289 5.82739389 -7.42080217 4.6620717 -6.125 3.5 C-5.04605469 2.52546875 -5.04605469 2.52546875 -3.9453125 1.53125 C-2 0 -2 0 0 0 Z " fill="#9F9FA0" transform="translate(489,579)"/>
<path d="M0 0 C3.59322025 0.75561401 4.93685585 1.67106981 7.25 4.5625 C8.03117188 5.52349609 8.03117188 5.52349609 8.828125 6.50390625 C9.21484375 6.99761719 9.6015625 7.49132812 10 8 C7.04590299 6.62845496 4.55991624 5.01136276 2 3 C2.11071695 6.20899141 2.24114313 9.41689709 2.375 12.625 C2.4059375 13.52863281 2.436875 14.43226563 2.46875 15.36328125 C2.68340426 20.26455357 3.14439037 24.39638833 5 29 C5.33 29.99 5.66 30.98 6 32 C3.53199953 30.84826645 1.95216435 29.95216435 0 28 C-0.22705078 25.20263672 -0.22705078 25.20263672 -0.1953125 21.6796875 C-0.18886719 20.42285156 -0.18242188 19.16601562 -0.17578125 17.87109375 C-0.15902344 16.55238281 -0.14226563 15.23367188 -0.125 13.875 C-0.11496983 12.53516279 -0.10584404 11.19531848 -0.09765625 9.85546875 C-0.07402075 6.57013427 -0.04107234 3.28515535 0 0 Z " fill="#A7A7A8" transform="translate(534,579)"/>
<path d="M0 0 C3.10699073 1.35261234 4.87539092 2.75243567 7 5.375 C9.20494948 8.07208262 11.42497904 10.40731553 14.12109375 12.59765625 C23.1398945 20.17355517 23.1398945 20.17355517 23.76953125 26.55078125 C23.87436456 30.74802851 23.53245027 34.83899975 23 39 C22.67 39 22.34 39 22 39 C21.98582031 37.97519531 21.97164063 36.95039063 21.95703125 35.89453125 C21.91010984 34.53381029 21.86186256 33.17313459 21.8125 31.8125 C21.80669922 31.13896484 21.80089844 30.46542969 21.79492188 29.77148438 C21.64045685 26.2531143 21.250055 24.30475453 19 21.5625 C18.01 20.716875 17.02 19.87125 16 19 C14.58805267 17.60732605 13.18664005 16.20393164 11.79296875 14.79296875 C11.04208984 14.04208984 10.29121094 13.29121094 9.51757812 12.51757812 C6.01171875 9.01171875 2.50585938 5.50585938 -1 2 C-0.67 1.34 -0.34 0.68 0 0 Z " fill="#AAABAC" transform="translate(466,394)"/>
<path d="M0 0 C0.99 0.66 1.98 1.32 3 2 C3 2.66 3 3.32 3 4 C1.86111328 3.93039062 1.86111328 3.93039062 0.69921875 3.859375 C-0.29464844 3.82328125 -1.28851563 3.7871875 -2.3125 3.75 C-3.79169922 3.68039062 -3.79169922 3.68039062 -5.30078125 3.609375 C-8.10537466 3.74152186 -8.10537466 3.74152186 -9.83984375 5.828125 C-11.72361737 9.3546507 -11.30492072 12.55162659 -10.5 16.375 C-10.335 16.91125 -10.17 17.4475 -10 18 C-11.32 17.34 -12.64 16.68 -14 16 C-14.78530425 7.01262916 -14.78530425 7.01262916 -11.625 2.9375 C-7.50015687 -0.10702707 -5.14592138 -0.27083797 0 0 Z " fill="#9D9EA0" transform="translate(462,390)"/>
<path d="M0 0 C10.23 0 20.46 0 31 0 C31 0.66 31 1.32 31 2 C20.57188716 2.70902441 10.41164047 3.35081164 0 2 C0 1.34 0 0.68 0 0 Z " fill="#A5A7A8" transform="translate(662,520)"/>
<path d="M0 0 C2.88129157 1.30967799 4.55859158 2.84964016 6.71875 5.15625 C7.41613281 5.88972656 8.11351562 6.62320312 8.83203125 7.37890625 C9.61126953 8.22775391 9.61126953 8.22775391 10.40625 9.09375 C9.08625 9.42375 7.76625 9.75375 6.40625 10.09375 C4.42625 7.78375 2.44625 5.47375 0.40625 3.09375 C-3.08728838 4.84051919 -4.73320763 6.00780215 -7.34375 8.71875 C-7.95734375 9.35039062 -8.5709375 9.98203125 -9.203125 10.6328125 C-9.66203125 11.11492187 -10.1209375 11.59703125 -10.59375 12.09375 C-11.58375 11.76375 -12.57375 11.43375 -13.59375 11.09375 C-11.88211717 9.22024646 -10.15267447 7.37183343 -8.40625 5.53125 C-7.68211914 4.73170898 -7.68211914 4.73170898 -6.94335938 3.91601562 C-3.2933607 0.11903713 -3.2933607 0.11903713 0 0 Z " fill="#999A9B" transform="translate(579.59375,487.90625)"/>
<path d="M0 0 C3.36335594 1.45745424 5.54534005 3.31117854 8.109375 5.9140625 C8.86347656 6.67460938 9.61757813 7.43515625 10.39453125 8.21875 C11.17183594 9.0128125 11.94914063 9.806875 12.75 10.625 C13.54277344 11.42679688 14.33554687 12.22859375 15.15234375 13.0546875 C17.10614493 15.03202846 19.05512103 17.01388909 21 19 C20.67 19.99 20.34 20.98 20 22 C8.76953125 10.76953125 8.76953125 10.76953125 6.81884766 8.81103516 C5.68841766 7.6854607 4.5489889 6.56875925 3.39599609 5.46630859 C2.22940703 4.345807 1.10881013 3.17770707 0 2 C0 1.34 0 0.68 0 0 Z " fill="#A7A8A8" transform="translate(547,590)"/>
<path d="M0 0 C2.59056594 1.59419442 4.60094326 2.89019725 5.66015625 5.8359375 C6.47061706 10.69870237 5.79518196 13.80722705 3 18 C-0.08888522 20.05925681 -0.70935927 20.2390374 -4.1875 20.125 C-5.445625 20.08375 -6.70375 20.0425 -8 20 C-5.08616689 18.05744459 -2.12736438 16.56368219 1 15 C2.56977574 13.43022426 2.20737081 11.85803613 2.25 9.6875 C2.22976799 6.51107456 2.13768129 5.23520554 0.5 2.4375 C0.005 1.963125 -0.49 1.48875 -1 1 C-0.67 0.67 -0.34 0.34 0 0 Z " fill="#AFB0B0" transform="translate(713,502)"/>
<path d="M0 0 C0.66 0.33 1.32 0.66 2 1 C-1.63 4.63 -5.26 8.26 -9 12 C-7.38262276 15.23475448 -6.52370777 16.70572021 -4 19 C-4.33 19.66 -4.66 20.32 -5 21 C-8.48872415 19.83709195 -9.09976864 18.86032391 -11.1875 15.9375 C-11.71730469 15.20402344 -12.24710938 14.47054688 -12.79296875 13.71484375 C-13.19128906 13.14894531 -13.58960938 12.58304687 -14 12 C-13 10 -13 10 -10.70703125 9.1328125 C-7.60976947 7.83670007 -5.9905986 6.29520531 -3.6875 3.875 C-2.64142578 2.78832031 -2.64142578 2.78832031 -1.57421875 1.6796875 C-1.05472656 1.12539063 -0.53523437 0.57109375 0 0 Z " fill="#B3B3B4" transform="translate(578,490)"/>
<path d="M0 0 C0.99 0.33 1.98 0.66 3 1 C-2.61 6.61 -8.22 12.22 -14 18 C-14.66 17.34 -15.32 16.68 -16 16 C-10.72 10.72 -5.44 5.44 0 0 Z " fill="#A9A9AB" transform="translate(569,409)"/>
<path d="M0 0 C0.33 0 0.66 0 1 0 C1.66433182 9.34809779 2.1598655 18.62122392 2 28 C-1.16115776 26.63016497 -1.9927092 26.0109362 -4 23 C-2.68 23.33 -1.36 23.66 0 24 C0 16.08 0 8.16 0 0 Z " fill="#9D9E9F" transform="translate(487,417)"/>
<path d="M0 0 C5.66129431 4.69766975 10.85228904 9.74723372 16 15 C15.01 15.33 14.02 15.66 13 16 C8.38 11.38 3.76 6.76 -1 2 C-0.67 1.34 -0.34 0.68 0 0 Z " fill="#ABADAE" transform="translate(540,610)"/>
<path d="M0 0 C7.07201547 -0.59932334 7.07201547 -0.59932334 11 1.9375 C13.68514232 6.04912418 13.46788961 9.22752594 13 14 C12.67 14 12.34 14 12 14 C11.34 10.7 10.68 7.4 10 4 C7.03 3.67 4.06 3.34 1 3 C0.67 2.01 0.34 1.02 0 0 Z " fill="#9FA0A2" transform="translate(562,390)"/>
<path d="M0 0 C0.99 0.33 1.98 0.66 3 1 C-1.62 5.62 -6.24 10.24 -11 15 C-11.33 14.01 -11.66 13.02 -12 12 C-8.04 8.04 -4.08 4.08 0 0 Z " fill="#9EA1A2" transform="translate(478,587)"/>
<path d="M0 0 C3.96979778 0.7577431 6.02846502 2.24637947 8.77832031 5.14160156 C11.00715542 8.53206776 10.63426407 11.95279996 10.375 15.875 C10.34792969 16.65875 10.32085937 17.4425 10.29296875 18.25 C10.22280278 20.16786981 10.11519754 22.0843076 10 24 C9.67 24 9.34 24 9 24 C8.98582031 22.97519531 8.97164063 21.95039063 8.95703125 20.89453125 C8.91010984 19.53381029 8.86186256 18.17313459 8.8125 16.8125 C8.80669922 16.13896484 8.80089844 15.46542969 8.79492188 14.77148438 C8.62287848 10.85271821 8.14371694 9.16766977 5.5625 6.15625 C4.716875 5.4446875 3.87125 4.733125 3 4 C1.97186389 2.68824014 0.95915568 1.3630107 0 0 Z " fill="#A1A3A4" transform="translate(479,409)"/>
<path d="M0 0 C1.32 0.33 2.64 0.66 4 1 C4 1.66 4 2.32 4 3 C4.86625 3.37125 4.86625 3.37125 5.75 3.75 C8.32939979 5.18299988 10.06121592 6.78424676 12 9 C12 9.66 12 10.32 12 11 C12.99 11.33 13.98 11.66 15 12 C14.34 12.66 13.68 13.32 13 14 C10.83031809 11.85714108 8.66416525 9.71091768 6.5 7.5625 C5.87996094 6.95083984 5.25992187 6.33917969 4.62109375 5.70898438 C4.03457031 5.12568359 3.44804687 4.54238281 2.84375 3.94140625 C2.02680664 3.13231812 2.02680664 3.13231812 1.19335938 2.30688477 C0 1 0 1 0 0 Z " fill="#A9AAAC" transform="translate(455,412)"/>
<path d="M0 0 C3.36591866 1.44253657 5.51047079 3.33264727 8 6 C7.67 6.66 7.34 7.32 7 8 C6.278125 7.319375 5.55625 6.63875 4.8125 5.9375 C2.1794348 3.68262931 2.1794348 3.68262931 -0.8125 4.25 C-1.534375 4.4975 -2.25625 4.745 -3 5 C-1.125 1.125 -1.125 1.125 0 0 Z " fill="#999A9A" transform="translate(444,488)"/>
<path d="M0 0 C0 1.32 0 2.64 0 4 C-0.598125 4.103125 -1.19625 4.20625 -1.8125 4.3125 C-4.28243264 5.08876455 -5.32251235 6.07088921 -7 8 C-7.99 7.67 -8.98 7.34 -10 7 C-8.71372289 5.82739389 -7.42080217 4.6620717 -6.125 3.5 C-5.04605469 2.52546875 -5.04605469 2.52546875 -3.9453125 1.53125 C-2 0 -2 0 0 0 Z " fill="#727474" transform="translate(489,579)"/>
<path d="M0 0 C0.66 0.99 1.32 1.98 2 3 C-0.31 5.31 -2.62 7.62 -5 10 C-5.99 9.34 -6.98 8.68 -8 8 C-7.34 8 -6.68 8 -6 8 C-6 7.34 -6 6.68 -6 6 C-5.34 6 -4.68 6 -4 6 C-4 5.34 -4 4.68 -4 4 C-3.34 4 -2.68 4 -2 4 C-2 3.34 -2 2.68 -2 2 C-1.34 2 -0.68 2 0 2 C0 1.34 0 0.68 0 0 Z " fill="#B5B6B8" transform="translate(550,400)"/>
<path d="M0 0 C0.99 0.33 1.98 0.66 3 1 C0.36 3.64 -2.28 6.28 -5 9 C-5.99 8.67 -6.98 8.34 -8 8 C-5.36 5.36 -2.72 2.72 0 0 Z " fill="#9FA0A1" transform="translate(574,491)"/>
<path d="M0 0 C3.59905908 0.55550695 4.99909799 1.74887248 7.25 4.5625 C8.03117188 5.52349609 8.03117188 5.52349609 8.828125 6.50390625 C9.21484375 6.99761719 9.6015625 7.49132812 10 8 C7.94681193 6.97770134 5.90217363 5.94820957 3.875 4.875 C2.04279198 3.85903818 2.04279198 3.85903818 0 4 C0 2.68 0 1.36 0 0 Z " fill="#777877" transform="translate(534,579)"/>
<path d="M0 0 C1.17539996 0.92652701 2.34010577 1.86663387 3.5 2.8125 C4.1496875 3.33457031 4.799375 3.85664063 5.46875 4.39453125 C7 6 7 6 7 9 C3.65001479 7.88333826 3.20659778 7.25305075 1.3125 4.4375 C0.87550781 3.79683594 0.43851563 3.15617187 -0.01171875 2.49609375 C-0.50091797 1.75552734 -0.50091797 1.75552734 -1 1 C-0.67 0.67 -0.34 0.34 0 0 Z " fill="#A5A5A7" transform="translate(566,502)"/>
<path d="M0 0 C1.90318884 2.85478326 2.4619099 4.41941308 3.125 7.6875 C3.29257812 8.49574219 3.46015625 9.30398438 3.6328125 10.13671875 C3.75398438 10.75160156 3.87515625 11.36648438 4 12 C2.68 11.34 1.36 10.68 0 10 C0 6.7 0 3.4 0 0 Z " fill="#A9AAAB" transform="translate(448,396)"/>
<path d="M0 0 C0.66 0.66 1.32 1.32 2 2 C-0.75 4.0625 -0.75 4.0625 -4 6 C-5.32 5.67 -6.64 5.34 -8 5 C-4.04 2.525 -4.04 2.525 0 0 Z " fill="#9D9EA3" transform="translate(572,628)"/>
<path d="M0 0 C0 0.66 0 1.32 0 2 C-3.08888522 4.05925681 -3.70935927 4.2390374 -7.1875 4.125 C-9.0746875 4.063125 -9.0746875 4.063125 -11 4 C-7.32740617 1.55160412 -4.45351799 0 0 0 Z " fill="#9C9EA1" transform="translate(716,518)"/>
<path d="M0 0 C0.99 0.33 1.98 0.66 3 1 C0.6875 3.5 0.6875 3.5 -2 6 C-2.99 6 -3.98 6 -5 6 C-3.35 4.02 -1.7 2.04 0 0 Z " fill="#A7A8A9" transform="translate(592,520)"/>
<path d="M0 0 C2.86724686 0.57344937 3.8614515 0.8614515 6 3 C6.125 5.625 6.125 5.625 6 8 C5.7525 7.38125 5.505 6.7625 5.25 6.125 C3.79371361 3.64931313 2.62187494 3.04874998 0 2 C0 1.34 0 0.68 0 0 Z " fill="#AAACAC" transform="translate(451,514)"/>
<path d="M0 0 C4 1 4 1 5.25 3.0625 C5.4975 3.701875 5.745 4.34125 6 5 C5.01 5.99 4.02 6.98 3 8 C2.01 5.36 1.02 2.72 0 0 Z " fill="#A4A5A6" transform="translate(454,498)"/>
<path d="M0 0 C0.66 0 1.32 0 2 0 C2 1.98 2 3.96 2 6 C-1.16115776 4.63016497 -1.9927092 4.0109362 -4 1 C-2.68 1.33 -1.36 1.66 0 2 C0 1.34 0 0.68 0 0 Z " fill="#727273" transform="translate(487,439)"/>
<path d="M0 0 C3.76488042 1.72154788 6.15063897 3.99234114 9 7 C6 7 6 7 4.39453125 5.46875 C3.87246094 4.8190625 3.35039063 4.169375 2.8125 3.5 C2.28269531 2.8503125 1.75289062 2.200625 1.20703125 1.53125 C0.80871094 1.0259375 0.41039062 0.520625 0 0 Z " fill="#A6A6A7" transform="translate(569,526)"/>
<path d="M0 0 C2.5625 2.125 2.5625 2.125 5 5 C4.8125 8.3125 4.8125 8.3125 4 11 C3.67 11 3.34 11 3 11 C2.566875 9.3603125 2.566875 9.3603125 2.125 7.6875 C1.18106796 3.95986155 1.18106796 3.95986155 -1 1 C-0.67 0.67 -0.34 0.34 0 0 Z " fill="#A2A4A4" transform="translate(713,502)"/>
<path d="M0 0 C0.66 1.32 1.32 2.64 2 4 C0.35 5.65 -1.3 7.3 -3 9 C-3 6 -3 6 -1 4 C-0.3574765 1.93125966 -0.3574765 1.93125966 0 0 Z " fill="#9D9D9E" transform="translate(487,603)"/>
<path d="M0 0 C2.0625 1.75 2.0625 1.75 4 4 C3.75 6.25 3.75 6.25 3 8 C1.02 4.535 1.02 4.535 -1 1 C-0.67 0.67 -0.34 0.34 0 0 Z " fill="#A4A6A5" transform="translate(571,613)"/>
<path d="" fill="#000000" transform="translate(0,0)"/>
<path d="" fill="#000000" transform="translate(0,0)"/>
<path d="" fill="#000000" transform="translate(0,0)"/>
</svg>